<svg xmlns="http://www.w3.org/2000/svg" viewBox="0 0 32 32" fill="none">
  <!-- Organische Blob-Formen überlagert -->
  
  <!-- Hintergrund-Blob: Coral (Hauptfarbe) -->
  <path 
    d="M16 2C24 2 30 7 30 14C30 21 26 30 18 30C10 30 2 24 2 16C2 8 8 2 16 2Z" 
    fill="#E07A5F"
  />
  
  <!-- Akzent-Blob oben rechts: Mint -->
  <path 
    d="M22 3C27 4 29 8 28 12C27 16 23 14 20 12C17 10 17 2 22 3Z" 
    fill="#88B7A3"
  />
  
  <!-- Akzent-Blob unten links: Gelb -->
  <path 
    d="M8 22C4 24 3 28 6 29C9 30 14 28 14 25C14 22 12 20 8 22Z" 
    fill="#E6B85C"
  />
  
  <!-- LZ Text -->
  <text 
    x="15" 
    y="21" 
    text-anchor="middle" 
    font-family="system-ui, -apple-system, sans-serif" 
    font-weight="800" 
    font-size="13" 
    fill="white"
    style="letter-spacing: -0.5px;"
  >LZ</text>
</svg>
