<svg xmlns="http://www.w3.org/2000/svg" viewBox="0 0 32 32" fill="none">
  <!-- Organische Blob-Formen - KNALLIG! -->
  
  <!-- Haupt-Blob: Kräftiges Coral/Orange -->
  <path 
    d="M16 2C24 2 30 7 30 14C30 21 26 30 18 30C10 30 2 24 2 16C2 8 8 2 16 2Z" 
    fill="#E86B4A"
  />
  
  <!-- Akzent-Blob oben rechts: Knalliges Himmelblau -->
  <path 
    d="M22 3C27 4 29 8 28 12C27 16 23 14 20 12C17 10 17 2 22 3Z" 
    fill="#6BA3E8"
  />
  
  <!-- Akzent-Blob unten links: Knalliges Pink -->
  <path 
    d="M8 22C4 24 3 28 6 29C9 30 14 28 14 25C14 22 12 20 8 22Z" 
    fill="#E8A0B8"
  />
  
  <!-- L in Gelb -->
  <text 
    x="10" 
    y="21" 
    font-family="system-ui, -apple-system, sans-serif" 
    font-weight="800" 
    font-size="13" 
    fill="#E6B85C"
    style="letter-spacing: -0.5px;"
  >L</text>
  
  <!-- Z in Grün -->
  <text 
    x="17" 
    y="21" 
    font-family="system-ui, -apple-system, sans-serif" 
    font-weight="800" 
    font-size="13" 
    fill="#88B7A3"
    style="letter-spacing: -0.5px;"
  >Z</text>
</svg>
